#N canvas 400 60 1040 738 12;
#X obj -88 274 send toGUI;
#X obj 465 725 tabwrite pitch;
#X obj 463 614 list split 1;
#X obj 551 613 t l;
#X obj 505 639 list length;
#X obj 489 689 - 1;
#X obj 489 664 int;
#X obj 463 640 t f b;
#X obj 158 186 metro 125;
#X obj 154 158 tgl 15 0 empty empty empty 17 7 0 10 #fcfcfc #000000 #000000 0 1;
#X obj 159 218 int;
#X obj 190 220 + 1;
#X obj 157 323 tabread pitch;
#X obj 157 378 int;
#X floatatom 156 403 5 0 0 0 - - - 0;
#X obj 157 428 mtof;
#X obj 166 577 dac~;
#X obj 160 453 phasor~;
#X obj 586 616 list split 1;
#X obj 674 615 t l;
#X obj 628 641 list length;
#X obj 612 691 - 1;
#X obj 612 666 int;
#X obj 586 642 t f b;
#X obj 594 726 tabwrite filt;
#X obj 332 279 tabread filt;
#X msg -88 244 list /indexSlider \$1;
#X floatatom 189 157 5 0 0 0 - - - 0;
#X obj 419 525 line~;
#X obj 421 479 t b b;
#X msg 528 481 1;
#X obj 162 545 *~;
#X obj 157 355 expr $f1*24+48;
#X obj 366 221 % 16;
#X obj 465 747 table pitch 16;
#X obj 594 748 table filt 16;
#X obj 162 484 lop~;
#X obj 476 383 expr $f1*$f1*$f1*6000+220;
#X obj 153 128 loadbang;
#X obj 420 499 pack 0 125;
#X obj -108 136 loadbang;
#X msg -107 159 list /tempoKnob 0.5;
#X obj 660 513 print;
#X msg 830 496 disconnect;
#X obj 800 525 netsend -u -b;
#X obj 817 446 loadbang;
#X msg 817 470 connect localhost 12000;
#X msg 798 334 4000;
#X obj 800 402 oscformat price;
#X msg 153 56 raw 1;
#X obj 552 268 bng 15 250 50 0 empty empty empty 17 7 0 10 #fcfcfc #000000 #000000;
#X msg 594 123 34 \, 97 \, 32 \, 98 \, 32 \, 99 \, 32 \, 100 \, 34 \, 44 \, 49 \, 50 \, 51 \, 13 \, 10;
#X msg 657 159 34 97 32 98 32 99 32 100 34 44 49 50 51 13 10;
#X obj 491 187 csv_parse;
#X msg 150 17 text get forex.csv;
#X connect 2 0 7 0;
#X connect 2 1 3 0;
#X connect 3 0 2 0;
#X connect 4 0 6 1;
#X connect 5 0 6 1;
#X connect 5 0 1 1;
#X connect 6 0 5 0;
#X connect 7 0 1 0;
#X connect 7 1 6 0;
#X connect 8 0 10 0;
#X connect 9 0 8 0;
#X connect 10 0 11 0;
#X connect 10 0 12 0;
#X connect 10 0 25 0;
#X connect 10 0 26 0;
#X connect 10 0 29 0;
#X connect 11 0 33 0;
#X connect 12 0 32 0;
#X connect 13 0 14 0;
#X connect 14 0 15 0;
#X connect 15 0 17 0;
#X connect 17 0 36 0;
#X connect 18 0 23 0;
#X connect 18 1 19 0;
#X connect 19 0 18 0;
#X connect 20 0 22 1;
#X connect 21 0 22 1;
#X connect 21 0 24 1;
#X connect 22 0 21 0;
#X connect 23 0 24 0;
#X connect 23 1 22 0;
#X connect 25 0 37 0;
#X connect 26 0 0 0;
#X connect 27 0 8 1;
#X connect 27 0 39 1;
#X connect 28 0 31 1;
#X connect 29 0 39 0;
#X connect 29 1 30 0;
#X connect 30 0 28 0;
#X connect 31 0 16 1;
#X connect 31 0 16 0;
#X connect 32 0 13 0;
#X connect 33 0 10 1;
#X connect 36 0 31 0;
#X connect 37 0 36 1;
#X connect 37 0 42 0;
#X connect 37 0 48 0;
#X connect 38 0 9 0;
#X connect 38 0 49 0;
#X connect 38 0 53 0;
#X connect 39 0 28 0;
#X connect 40 0 41 0;
#X connect 41 0 0 0;
#X connect 43 0 44 0;
#X connect 45 0 46 0;
#X connect 46 0 44 0;
#X connect 47 0 48 0;
#X connect 48 0 44 0;
#X connect 51 0 53 0;
#X connect 52 0 53 0;
#X connect 53 1 50 0;
#X connect 54 0 49 0;
